<?xml version="1.0" encoding="UTF-8"?>
<svg width="34px" height="26px" viewBox="0 0 34 26" version="1.1" xmlns="http://www.w3.org/2000/svg" xmlns:xlink="http://www.w3.org/1999/xlink">
    <!-- Generator: Sketch 52.2 (67145) - http://www.bohemiancoding.com/sketch -->
    <title>dj-mm-exclamation-circle-yellow</title>
    <desc>Created with Sketch.</desc>
    <g id="Interface-icons" stroke="none" stroke-width="1" fill="none" fill-rule="evenodd">
        <g id="dj-mm-exclamation-triangle-redish" transform="translate(-3.000000, -5.000000)">
            <g id="dj-mm-exclamation-circle-yellow" transform="translate(5.000000, 7.000000)">
                <polygon id="mask" points="3 1 27 1 27 25 3 25"></polygon>
                <path d="M15,-1.77513693 L31.8921388,23 L-1.89213881,23 L15,-1.77513693 Z" id="Triangle" stroke="#B0B0B0" stroke-width="2" fill="#FF5600" stroke-linejoin="round"></path>
                <path d="M16.2132353,14.5106383 C16.2058823,14.5697402 16.1838237,14.6229312 16.1470588,14.6702128 C16.1102939,14.7174943 16.0459563,14.7573875 15.9540441,14.7898936 C15.8621319,14.8223997 15.7371331,14.8475176 15.5790441,14.8652482 C15.4209551,14.8829788 15.2279423,14.891844 15,14.891844 C14.7647047,14.891844 14.5698537,14.8829788 14.4154412,14.8652482 C14.2610286,14.8475176 14.1378681,14.8223997 14.0459559,14.7898936 C13.9540437,14.7573875 13.8897061,14.7174943 13.8529412,14.6702128 C13.8161763,14.6229312 13.7941177,14.5697402 13.7867647,14.5106383 L13.5,6.46099291 C13.5,6.38416037 13.5220586,6.31619415 13.5661765,6.2570922 C13.6102943,6.19799025 13.6893377,6.14923187 13.8033088,6.1108156 C13.91728,6.07239934 14.0716902,6.04432633 14.2665441,6.02659574 C14.461398,6.00886516 14.7058809,6 15,6 C15.2941191,6 15.5367637,6.01034269 15.7279412,6.03102837 C15.9191186,6.05171405 16.0716906,6.08126458 16.1856618,6.11968085 C16.2996329,6.15809712 16.3805145,6.20537797 16.4283088,6.26152482 C16.4761032,6.31767168 16.5,6.38416037 16.5,6.46099291 L16.2132353,14.5106383 Z M16.5,19.108156 C16.5,19.350474 16.4769506,19.5543727 16.4308511,19.7198582 C16.3847515,19.8853436 16.3031921,20.018321 16.1861702,20.1187943 C16.0691484,20.2192676 15.9148946,20.2916664 15.7234043,20.3359929 C15.5319139,20.3803194 15.2907816,20.4024823 15,20.4024823 C14.7092184,20.4024823 14.466313,20.3803194 14.2712766,20.3359929 C14.0762402,20.2916664 13.9219864,20.2192676 13.8085106,20.1187943 C13.6950349,20.018321 13.6152485,19.8853436 13.5691489,19.7198582 C13.5230494,19.5543727 13.5,19.350474 13.5,19.108156 C13.5,18.8599278 13.5230494,18.6515966 13.5691489,18.483156 C13.6152485,18.3147155 13.6950349,18.178783 13.8085106,18.0753546 C13.9219864,17.9719262 14.0762402,17.8980499 14.2712766,17.8537234 C14.466313,17.8093969 14.7092184,17.787234 15,17.787234 C15.2907816,17.787234 15.5319139,17.8093969 15.7234043,17.8537234 C15.9148946,17.8980499 16.0691484,17.9719262 16.1861702,18.0753546 C16.3031921,18.178783 16.3847515,18.3147155 16.4308511,18.483156 C16.4769506,18.6515966 16.5,18.8599278 16.5,19.108156 Z" id="!" fill="#FFFFFF"></path>
            </g>
        </g>
    </g>
</svg>